# https://github.com/mikedh/trimesh
mtllib material.mtl
usemtl material_0
v -0.02000000 -0.02000000 0.00000000
v 0.02000000 -0.02000000 0.00000000
v 0.02000000 0.02000000 0.00000000
v -0.02000000 0.02000000 0.00000000
vn 0.00000000 0.00000000 1.00000000
vn 0.00000000 0.00000000 1.00000000
vn 0.00000000 0.00000000 1.00000000
vn 0.00000000 0.00000000 1.00000000
vt 0.00000000 0.00000000
vt 1.00000000 0.00000000
vt 1.00000000 1.00000000
vt 0.00000000 1.00000000
f 1/1/1 2/2/2 3/3/3
f 1/1/1 3/3/3 4/4/4

